<svg width="40" height="40" viewBox="0 0 40 40" fill="none" xmlns="http://www.w3.org/2000/svg">
<path d="M18.3335 38.6667C8.22512 38.6667 0 30.4418 0 20.3335C0 10.2251 8.22512 2 18.3335 2C21.8485 2 25.2683 3.00159 28.2233 4.89826C28.8035 5.2718 28.9735 6.04512 28.5999 6.62678C28.2252 7.20845 27.4534 7.3766 26.8717 7.00337C24.3217 5.36488 21.3685 4.50001 18.3335 4.50001C9.6033 4.50001 2.50001 11.6033 2.50001 20.3335C2.50001 29.0634 9.6033 36.1667 18.3335 36.1667C27.0634 36.1667 34.1667 29.0634 34.1667 20.3335C34.1667 19.8116 34.1416 19.295 34.0934 18.7868C34.0269 18.0984 34.5301 17.4883 35.2168 17.4218C35.9068 17.3583 36.515 17.8585 36.5818 18.5451C36.6383 19.1335 36.6667 19.7302 36.6667 20.3335C36.6667 30.4418 28.4419 38.6667 18.3335 38.6667Z" fill="#41A239"/>
<path d="M17.9792 26.6667C17.6632 26.6667 17.3468 26.5459 17.1065 26.3031L9.6949 18.8629C9.21238 18.3782 9.21238 17.5929 9.6949 17.1085C10.1774 16.6241 10.9597 16.6241 11.4422 17.1085L17.9811 23.6726L35.2235 6.36329C35.7063 5.8789 36.4886 5.8789 36.9711 6.36329C37.4536 6.84768 37.4536 7.63299 36.9711 8.11738L18.8538 26.3046C18.6117 26.5459 18.2956 26.6667 17.9792 26.6667Z" fill="#41A239"/>
</svg>
