<svg width="50" height="50" viewBox="0 0 50 50" fill="none" xmlns="http://www.w3.org/2000/svg">
<path d="M38.3301 31.425C38.2076 31.4833 38.1043 31.4592 38.0051 31.4592C37.2034 31.4617 36.4018 31.4508 35.6009 31.4667C35.3743 31.4708 35.2743 31.3925 35.1893 31.1917C34.1159 28.6683 33.0334 26.1492 31.9543 23.6292C31.9118 23.5292 31.8901 23.4317 31.7309 23.4458C30.3668 23.5658 28.9984 23.4767 27.6326 23.5033C27.5393 23.505 27.4451 23.5033 27.3593 23.5033C27.2826 23.6083 27.3126 23.7142 27.3126 23.8125C27.3109 26.2717 27.3076 28.7317 27.3168 31.1908C27.3176 31.4233 27.2468 31.4783 27.0251 31.4742C26.2634 31.4608 25.5009 31.4692 24.7384 31.4692C24.6534 31.4692 24.5676 31.4692 24.4434 31.4692C24.4434 30.1217 24.4434 28.7967 24.4434 27.4717C24.4434 26.1525 24.4434 24.8342 24.4434 23.5233C24.3334 23.4458 24.2284 23.4767 24.1309 23.4767C21.3418 23.475 18.5518 23.4775 15.7626 23.47C15.5326 23.4692 15.4576 23.5133 15.4584 23.7633C15.4668 26.2383 15.4601 28.7133 15.4576 31.1883C15.4576 31.2658 15.4576 31.3433 15.4576 31.44C14.5259 31.44 13.6118 31.44 12.6768 31.44C12.6768 24.1492 12.6768 16.8542 12.6768 9.54752C13.5976 9.54752 14.5134 9.54752 15.4526 9.54752C15.4526 13.16 15.4526 16.7625 15.4526 20.385C18.4559 20.385 21.4351 20.385 24.4151 20.385C24.4659 20.2825 24.4434 20.1792 24.4434 20.08C24.4451 16.6542 24.4468 13.2283 24.4401 9.80168C24.4393 9.57585 24.4984 9.51002 24.7276 9.51168C26.8334 9.52835 28.9418 9.46752 31.0434 9.55752C33.9934 9.68418 36.3109 10.9717 37.7068 13.6458C38.9126 15.9558 38.5118 18.8375 36.7951 20.8108C36.4793 21.1742 36.1359 21.505 35.7584 21.8033C35.3876 22.0958 34.9909 22.3475 34.5559 22.59C35.8134 25.5392 37.0709 28.4808 38.3301 31.425ZM27.3243 20.3617C27.3501 20.3733 27.3643 20.385 27.3776 20.3842C28.7193 20.37 30.0651 20.4708 31.4018 20.3308C32.6693 20.1983 33.7934 19.7225 34.6784 18.76C35.8609 17.4742 35.9251 15.7683 34.7943 14.4442C33.7568 13.2292 32.3809 12.7058 30.8176 12.6608C29.7193 12.6292 28.6193 12.6542 27.5201 12.655C27.4593 12.655 27.3976 12.6617 27.3243 12.6667C27.3243 15.2417 27.3243 17.8042 27.3243 20.3617Z" fill="#3D73CC"/>
<path d="M21.0658 35.8269C21.3366 36.4627 21.6 37.081 21.8775 37.7335C21.6616 37.7335 21.4841 37.731 21.3058 37.7344C21.1883 37.7369 21.1708 37.646 21.1375 37.5685C20.9425 37.1144 20.7433 36.661 20.5558 36.2035C20.4975 36.061 20.4267 35.9985 20.2592 36.0127C20.0108 36.0344 19.76 36.0185 19.48 36.0185C19.48 36.596 19.48 37.1494 19.48 37.7102C19.2675 37.7519 19.0825 37.7269 18.8792 37.731C18.8792 36.1494 18.8792 34.5844 18.8792 32.9852C19.5017 33.0135 20.1316 32.8919 20.7433 33.0702C21.3466 33.2452 21.7591 33.641 21.8608 34.2785C21.9633 34.9185 21.6958 35.4085 21.1583 35.7585C21.1325 35.7752 21.1083 35.7952 21.0658 35.8269ZM19.4866 35.3377C19.9108 35.3244 20.3141 35.3927 20.6975 35.2352C21.0141 35.1052 21.2533 34.8894 21.2641 34.5252C21.275 34.1702 21.0542 33.9469 20.7542 33.7994C20.3467 33.5994 19.9166 33.6927 19.4733 33.6869C19.4733 34.1852 19.4733 34.6544 19.4742 35.1235C19.4742 35.1844 19.4808 35.2452 19.4866 35.3377Z" fill="#3D73CC"/>
<path d="M8.85994 32.9983C9.08327 32.9983 9.26744 32.9983 9.44911 32.9983C9.48411 33.1908 9.49494 37.3741 9.46161 37.7133C9.27494 37.7516 9.08494 37.7374 8.86327 37.7183C8.86327 37.0449 8.86327 36.3824 8.86327 35.7074C8.20827 35.7074 7.58244 35.7074 6.92827 35.7074C6.92827 36.3766 6.92827 37.0399 6.92827 37.7141C6.69994 37.7441 6.5016 37.7433 6.29077 37.7174C6.29077 36.1441 6.29077 34.5833 6.29077 33.0074C6.48994 32.9666 6.68994 32.9824 6.91827 32.9974C6.91827 33.6833 6.91827 34.3624 6.91827 35.0549C7.57744 35.0549 8.20827 35.0549 8.85994 35.0549C8.85994 34.3666 8.85994 33.6941 8.85994 32.9983Z" fill="#3D73CC"/>
<path d="M15.3425 37.33C15.3425 37.8842 15.3425 38.385 15.3425 38.9C15.14 38.9 14.955 38.9 14.7633 38.9C14.7042 38.8392 14.7308 38.7567 14.7308 38.6817C14.7292 37.77 14.7283 36.8592 14.73 35.9475C14.7317 35.1434 15.2833 34.4384 16.0625 34.24C16.8517 34.0392 17.6667 34.4009 18.0608 35.1259C18.4408 35.8259 18.3008 36.6909 17.7175 37.2442C17.1267 37.8042 16.2533 37.8925 15.5633 37.4625C15.505 37.4267 15.4458 37.3925 15.3425 37.33ZM15.3442 35.9675C15.3467 36.6042 15.8625 37.1192 16.4975 37.12C17.1283 37.1209 17.65 36.6009 17.6525 35.9675C17.655 35.3192 17.1383 34.8059 16.4867 34.8092C15.8475 34.8125 15.3417 35.3259 15.3442 35.9675Z" fill="#3D73CC"/>
<path d="M10.5467 36.2706C10.6675 37.089 11.6258 37.3406 12.445 36.7948C12.5858 36.9256 12.6967 37.0815 12.7983 37.2423C12.3142 37.8148 11.3092 37.8931 10.6133 37.4206C9.875 36.919 9.62667 35.9248 10.0442 35.1431C10.4767 34.334 11.44 33.969 12.2567 34.3056C13.0608 34.6373 13.55 35.5173 13.3333 36.2698C12.415 36.2706 11.49 36.2706 10.5467 36.2706ZM10.5283 35.6456C11.2625 35.6456 11.98 35.6456 12.7 35.6456C12.61 35.169 12.1592 34.8165 11.6442 34.809C11.0958 34.8015 10.6433 35.134 10.5283 35.6456Z" fill="#3D73CC"/>
<path d="M22.9459 36.2616C23.0617 37.0874 24.0201 37.3391 24.8542 36.7891C24.9684 36.9316 25.0834 37.0766 25.1967 37.2182C24.8742 37.7266 23.9026 37.8882 23.2359 37.5524C22.3992 37.1316 22.0276 36.1757 22.3659 35.3149C22.6976 34.4716 23.6159 34.0066 24.4776 34.2457C25.3542 34.4891 25.9117 35.3557 25.7492 36.2607C24.8251 36.2616 23.8951 36.2616 22.9459 36.2616ZM25.1034 35.6432C24.9809 35.1241 24.5292 34.7974 23.9667 34.8099C23.4676 34.8207 23.0176 35.1782 22.9326 35.6432C23.6567 35.6432 24.3784 35.6432 25.1034 35.6432Z" fill="#3D73CC"/>
<path d="M42.9376 36.2719C43.0559 37.0877 43.9993 37.3352 44.8459 36.7911C44.9593 36.9336 45.0751 37.0786 45.2051 37.2411C44.9709 37.5052 44.6751 37.6419 44.3493 37.6977C43.6284 37.8227 43.0226 37.6011 42.5851 37.0102C42.1593 36.4361 42.1043 35.7977 42.4301 35.1661C42.7618 34.5227 43.3059 34.1769 44.0518 34.1961C45.0493 34.2219 45.8151 35.0486 45.7809 36.0502C45.7751 36.2219 45.7209 36.2777 45.5451 36.2752C44.7676 36.2661 43.9893 36.2711 43.2118 36.2711C43.1268 36.2719 43.0409 36.2719 42.9376 36.2719ZM45.0934 35.6436C44.9726 35.1244 44.5209 34.7977 43.9576 34.8102C43.4576 34.8211 43.0126 35.1744 42.9226 35.6436C43.6468 35.6436 44.3684 35.6436 45.0934 35.6436Z" fill="#3D73CC"/>
<path d="M31.0625 34.1951C32.0375 34.1584 32.8516 34.9368 32.8825 35.9351C32.9116 36.8776 32.1241 37.6993 31.1591 37.7343C30.2108 37.7676 29.3658 36.9951 29.3375 36.0684C29.305 35.0251 30.0333 34.2343 31.0625 34.1951ZM31.1158 34.8093C30.4625 34.8068 29.9491 35.3168 29.95 35.9676C29.9516 36.6034 30.4716 37.1226 31.1041 37.1201C31.7408 37.1168 32.2583 36.6009 32.26 35.9676C32.2625 35.3293 31.7516 34.8118 31.1158 34.8093Z" fill="#3D73CC"/>
<path d="M36.1632 34.2106C36.3741 34.2106 36.5582 34.2106 36.7591 34.2106C36.7591 35.3756 36.7591 36.534 36.7591 37.7123C36.5732 37.7515 36.3824 37.7365 36.1957 37.7206C36.1307 37.6023 36.1907 37.4781 36.1382 37.349C36.0224 37.4156 35.9182 37.4798 35.8107 37.5365C34.7466 38.0965 33.3782 37.4031 33.2649 36.209C33.2032 35.5565 33.2541 34.8931 33.2541 34.2223C33.4474 34.1773 33.6366 34.1915 33.8541 34.2148C33.8541 34.789 33.8541 35.3523 33.8541 35.9156C33.8541 36.2248 33.9366 36.5048 34.1516 36.7365C34.4807 37.0906 34.9657 37.2115 35.3991 37.0481C35.8649 36.8723 36.1516 36.4756 36.1616 35.9631C36.1707 35.4681 36.1641 34.974 36.1641 34.479C36.1632 34.3931 36.1632 34.309 36.1632 34.2106Z" fill="#3D73CC"/>
<path d="M26.1558 36.6473C26.3558 36.5973 26.5366 36.5556 26.7233 36.5623C26.9616 37.3298 27.5041 37.2856 27.9649 37.1765C28.1866 37.124 28.3391 36.9706 28.3441 36.724C28.3499 36.4756 28.1624 36.3948 27.9683 36.3365C27.6224 36.2331 27.2708 36.1481 26.9283 36.0348C26.4458 35.8756 26.1999 35.5206 26.2466 35.089C26.2991 34.6081 26.6441 34.2681 27.1441 34.2065C27.3708 34.1781 27.5974 34.1773 27.8249 34.2006C28.4033 34.2615 28.7083 34.5356 28.8349 35.1256C28.6808 35.2106 28.5024 35.1856 28.3374 35.2223C28.2549 35.2406 28.2416 35.1631 28.2133 35.1081C28.0033 34.7031 27.4058 34.5473 27.0233 34.7965C26.7808 34.9548 26.7891 35.2648 27.0449 35.4056C27.2324 35.509 27.4424 35.5465 27.6466 35.6031C27.8808 35.6681 28.1166 35.7306 28.3441 35.8148C28.6908 35.9431 28.9491 36.1706 28.9666 36.564C28.9833 36.9456 28.8541 37.289 28.5108 37.489C27.9424 37.8215 27.3374 37.8281 26.7491 37.5581C26.3816 37.3906 26.2158 37.0515 26.1558 36.6473Z" fill="#3D73CC"/>
<path d="M41.4124 36.8615C41.5582 36.9998 41.6941 37.1281 41.8282 37.2548C41.3374 37.8715 40.2099 37.889 39.5174 37.304C38.7674 36.6698 38.6874 35.5198 39.3424 34.7931C40.0224 34.0381 41.1291 33.974 41.8541 34.6565C41.7607 34.8315 41.5774 34.9206 41.4657 35.0698C40.6207 34.694 40.1057 34.7615 39.7357 35.2881C39.4116 35.7481 39.4541 36.3573 39.8382 36.7606C40.2432 37.1865 40.8182 37.2256 41.4124 36.8615Z" fill="#3D73CC"/>
<path d="M37.1499 34.1958C37.3574 34.1958 37.5366 34.1958 37.7141 34.1958C37.8041 34.3108 37.7174 34.4475 37.7866 34.575C38.1224 34.3467 38.4741 34.1708 38.9041 34.1975C38.9466 34.3958 38.9282 34.5875 38.9149 34.7908C38.7382 34.8183 38.5649 34.8325 38.4124 34.9158C37.9916 35.145 37.7599 35.495 37.7582 35.9808C37.7557 36.5525 37.7574 37.125 37.7574 37.705C37.5491 37.7575 37.3574 37.7233 37.1507 37.73C37.1499 36.545 37.1499 35.38 37.1499 34.1958Z" fill="#3D73CC"/>
<path d="M14.3466 37.7199C14.1416 37.7199 13.9641 37.7199 13.7725 37.7199C13.7725 36.1424 13.7725 34.5782 13.7725 33.0049C13.9633 32.9657 14.1475 32.9899 14.3466 32.989C14.3466 34.5732 14.3466 36.1374 14.3466 37.7199Z" fill="#3D73CC"/>
<path d="M21.3834 40.4683C21.3042 40.1833 21.7201 40.3016 21.6767 40.0616C21.6117 40.0191 21.5542 40.0899 21.4892 40.0999C21.1642 40.1483 20.8859 39.9624 20.8251 39.6466C20.7634 39.3308 20.9767 39.0349 21.3042 38.9799C21.5959 38.9308 21.8759 39.1358 21.9342 39.4474C21.9709 39.6416 21.9701 39.8391 21.9326 40.0324C21.8792 40.3058 21.6884 40.4574 21.3834 40.4683ZM21.7384 39.5374C21.7351 39.3424 21.5676 39.1816 21.3726 39.1858C21.1717 39.1908 21.0176 39.3516 21.0226 39.5516C21.0267 39.7483 21.1934 39.9099 21.3876 39.9058C21.5834 39.9008 21.7417 39.7349 21.7384 39.5374Z" fill="#3D73CC"/>
<path d="M34.0874 38.9894C34.2132 38.9427 34.2749 38.9761 34.2724 39.1227C34.2666 39.3894 34.2782 39.6561 34.2691 39.9227C34.2574 40.2461 34.0691 40.4369 33.7141 40.4911C33.6666 40.3877 33.6524 40.3119 33.8007 40.2711C33.8966 40.2444 33.9882 40.1902 34.0091 40.0519C33.7982 40.1069 33.5916 40.1577 33.3966 40.0302C33.1766 39.8852 33.0174 39.2477 33.1457 39.0177C33.1874 38.9427 33.2516 38.9752 33.3357 38.9869C33.3357 39.1552 33.3324 39.3269 33.3366 39.4969C33.3424 39.7485 33.4791 39.9027 33.6949 39.9052C33.9057 39.9085 34.0482 39.7544 34.0607 39.5036C34.0691 39.3394 34.0707 39.1761 34.0766 39.0119C34.0749 39.0061 34.0824 38.9994 34.0874 38.9894Z" fill="#3D73CC"/>
<path d="M24.8767 39.9584C24.6225 40.1468 24.3692 40.1543 24.1534 39.9901C23.9642 39.8459 23.8867 39.5593 23.9759 39.3326C24.0609 39.1168 24.31 38.9559 24.5325 38.9718C24.7917 38.9909 25.0042 39.1818 25.06 39.4334C25.0959 39.5968 25.05 39.6643 24.8734 39.6551C24.6509 39.6434 24.4267 39.6526 24.1892 39.6526C24.31 39.8968 24.4384 39.9501 24.6467 39.8676C24.7742 39.8168 24.7742 39.8168 24.8767 39.9584ZM24.1775 39.4251C24.4059 39.4518 24.6134 39.4476 24.8359 39.4309C24.76 39.2484 24.6409 39.1776 24.4784 39.1893C24.3384 39.1984 24.2334 39.2643 24.1775 39.4251Z" fill="#3D73CC"/>
<path d="M18.8109 40.1341C18.6026 39.9958 18.4059 40.1191 18.2067 40.1033C17.9076 40.0808 17.6867 39.8383 17.6892 39.5374C17.6917 39.2449 17.9201 38.9999 18.2159 38.9733C18.4917 38.9483 18.7642 39.1533 18.8084 39.4358C18.8426 39.6516 18.8342 39.8708 18.8109 40.1341ZM18.6167 39.5491C18.6201 39.3549 18.4576 39.1883 18.2617 39.1874C18.0551 39.1858 17.9034 39.3341 17.9001 39.5391C17.8976 39.7349 18.0584 39.9033 18.2517 39.9058C18.4417 39.9083 18.6134 39.7408 18.6167 39.5491Z" fill="#3D73CC"/>
<path d="M27.0732 40.0823C27.0732 39.7107 27.0732 39.3523 27.0732 38.9307C27.2874 39.144 27.4807 38.9482 27.6816 38.9748C27.9607 39.0123 28.1732 39.2232 28.1907 39.5057C28.2024 39.6923 28.1932 39.8798 28.1932 40.074C28.0632 40.1248 27.9982 40.1057 27.9982 39.9557C27.9982 39.7998 28.0166 39.6432 27.9791 39.4873C27.9324 39.294 27.8182 39.1823 27.6157 39.189C27.4016 39.1957 27.2874 39.3282 27.2641 39.5307C27.2482 39.6698 27.2549 39.8123 27.2607 39.9532C27.2666 40.084 27.2149 40.1265 27.0732 40.0823Z" fill="#3D73CC"/>
<path d="M31.1234 39.1333C31.0559 39.2341 30.9951 39.2616 30.8809 39.2166C30.7134 39.15 30.5543 39.1908 30.4509 39.3541C30.3668 39.4866 30.3718 39.625 30.4634 39.75C30.5743 39.9 30.7226 39.9533 30.8959 39.8633C31.0234 39.7975 31.0568 39.8891 31.1159 39.9591C30.8484 40.1658 30.5293 40.1483 30.3309 39.9266C30.1309 39.7033 30.1343 39.3741 30.3384 39.1591C30.5584 38.9258 30.8443 38.9125 31.1234 39.1333Z" fill="#3D73CC"/>
</svg>
