<svg width="70" height="70" viewBox="0 0 70 70" fill="none" xmlns="http://www.w3.org/2000/svg">
<path d="M53.662 43.995C53.4905 44.0767 53.3458 44.0429 53.207 44.0429C52.0847 44.0464 50.9623 44.0312 49.8411 44.0534C49.5238 44.0592 49.3838 43.9495 49.2648 43.6684C47.7621 40.1357 46.2467 36.6089 44.7358 33.0809C44.6763 32.9409 44.646 32.8044 44.4231 32.8242C42.5133 32.9922 40.5976 32.8674 38.6855 32.9047C38.5548 32.907 38.423 32.9047 38.3028 32.9047C38.1955 33.0517 38.2375 33.1999 38.2375 33.3375C38.2351 36.7804 38.2305 40.2244 38.2433 43.6672C38.2445 43.9927 38.1453 44.0697 37.835 44.0639C36.7686 44.0452 35.7011 44.0569 34.6336 44.0569C34.5146 44.0569 34.3945 44.0569 34.2207 44.0569C34.2207 42.1704 34.2207 40.3154 34.2207 38.4604C34.2207 36.6135 34.2207 34.7679 34.2207 32.9327C34.0667 32.8242 33.9197 32.8674 33.7832 32.8674C29.8783 32.865 25.9723 32.8685 22.0675 32.858C21.7455 32.8569 21.6405 32.9187 21.6416 33.2687C21.6533 36.7337 21.644 40.1987 21.6405 43.6637C21.6405 43.7722 21.6405 43.8807 21.6405 44.016C20.3361 44.016 19.0563 44.016 17.7473 44.016C17.7473 33.8089 17.7473 23.5959 17.7473 13.3665C19.0365 13.3665 20.3186 13.3665 21.6335 13.3665C21.6335 18.424 21.6335 23.4675 21.6335 28.539C25.8381 28.539 30.009 28.539 34.181 28.539C34.2522 28.3955 34.2207 28.2509 34.2207 28.112C34.223 23.3159 34.2253 18.5197 34.216 13.7224C34.2148 13.4062 34.2977 13.314 34.6185 13.3164C37.5667 13.3397 40.5183 13.2545 43.4606 13.3805C47.5906 13.5579 50.8352 15.3604 52.7893 19.1042C54.4775 22.3382 53.9163 26.3725 51.513 29.1352C51.0708 29.6439 50.5902 30.107 50.0617 30.5247C49.5425 30.9342 48.9872 31.2865 48.3782 31.626C50.1387 35.7549 51.8991 39.8732 53.662 43.995ZM38.2538 28.5064C38.29 28.5227 38.3098 28.539 38.3285 28.5379C40.2068 28.518 42.091 28.6592 43.9623 28.4632C45.7368 28.2777 47.3107 27.6115 48.5497 26.264C50.2052 24.4639 50.295 22.0757 48.7118 20.2219C47.2593 18.5209 45.3331 17.7882 43.1445 17.7252C41.6068 17.6809 40.0668 17.7159 38.528 17.717C38.4428 17.717 38.3565 17.7264 38.2538 17.7334C38.2538 21.3384 38.2538 24.9259 38.2538 28.5064Z" fill="#3D73CC"/>
<path d="M29.4922 50.1573C29.8714 51.0475 30.2401 51.9132 30.6286 52.8267C30.3264 52.8267 30.0779 52.8232 29.8282 52.8278C29.6637 52.8313 29.6392 52.7042 29.5926 52.5957C29.3196 51.9598 29.0407 51.3252 28.7782 50.6847C28.6966 50.4852 28.5974 50.3977 28.3629 50.4175C28.0152 50.4478 27.6641 50.4257 27.2721 50.4257C27.2721 51.2342 27.2721 52.0088 27.2721 52.794C26.9746 52.8523 26.7156 52.8173 26.4309 52.8232C26.4309 50.6088 26.4309 48.4178 26.4309 46.179C27.3024 46.2187 28.1844 46.0483 29.0407 46.298C29.8854 46.543 30.4629 47.0972 30.6052 47.9897C30.7487 48.8857 30.3742 49.5717 29.6217 50.0617C29.5856 50.085 29.5517 50.113 29.4922 50.1573ZM27.2814 49.4725C27.8752 49.4538 28.4399 49.5495 28.9766 49.329C29.4199 49.147 29.7547 48.8448 29.7699 48.335C29.7851 47.838 29.4759 47.5253 29.0559 47.3188C28.4854 47.0388 27.8834 47.1695 27.2627 47.1613C27.2627 47.859 27.2627 48.5158 27.2639 49.1727C27.2639 49.2578 27.2732 49.343 27.2814 49.4725Z" fill="#3D73CC"/>
<path d="M12.404 46.1979C12.7166 46.1979 12.9745 46.1979 13.2288 46.1979C13.2778 46.4674 13.293 52.324 13.2463 52.7989C12.985 52.8525 12.719 52.8327 12.4086 52.8059C12.4086 51.8632 12.4086 50.9357 12.4086 49.9907C11.4916 49.9907 10.6155 49.9907 9.69963 49.9907C9.69963 50.9275 9.69963 51.8562 9.69963 52.8C9.37996 52.842 9.1023 52.8409 8.80713 52.8047C8.80713 50.602 8.80713 48.4169 8.80713 46.2107C9.08596 46.1535 9.36596 46.1757 9.68563 46.1967C9.68563 47.1569 9.68563 48.1077 9.68563 49.0772C10.6085 49.0772 11.4916 49.0772 12.404 49.0772C12.404 48.1135 12.404 47.172 12.404 46.1979Z" fill="#3D73CC"/>
<path d="M21.4795 52.2618C21.4795 53.0377 21.4795 53.7388 21.4795 54.4598C21.196 54.4598 20.937 54.4598 20.6686 54.4598C20.5858 54.3747 20.6231 54.2592 20.6231 54.1542C20.6208 52.8778 20.6196 51.6027 20.622 50.3263C20.6243 49.2005 21.3966 48.2135 22.4875 47.9358C23.5923 47.6547 24.7333 48.161 25.2851 49.176C25.8171 50.156 25.6211 51.367 24.8045 52.1417C23.9773 52.9257 22.7546 53.0493 21.7886 52.4473C21.707 52.3972 21.6241 52.3493 21.4795 52.2618ZM21.4818 50.3543C21.4853 51.2457 22.2075 51.9667 23.0965 51.9678C23.9796 51.969 24.71 51.241 24.7135 50.3543C24.717 49.4467 23.9936 48.728 23.0813 48.7327C22.1865 48.7373 21.4783 49.456 21.4818 50.3543Z" fill="#3D73CC"/>
<path d="M14.7653 50.779C14.9345 51.9246 16.2761 52.277 17.423 51.5128C17.6201 51.696 17.7753 51.9141 17.9176 52.1393C17.2398 52.9408 15.8328 53.0505 14.8586 52.389C13.825 51.6866 13.4773 50.2948 14.0618 49.2005C14.6673 48.0676 16.016 47.5566 17.1593 48.028C18.2851 48.4923 18.97 49.7243 18.6666 50.7778C17.381 50.779 16.086 50.779 14.7653 50.779ZM14.7396 49.904C15.7675 49.904 16.772 49.904 17.78 49.904C17.654 49.2366 17.0228 48.7431 16.3018 48.7326C15.5341 48.7221 14.9006 49.1876 14.7396 49.904Z" fill="#3D73CC"/>
<path d="M32.1242 50.7663C32.2863 51.9224 33.628 52.2748 34.7958 51.5048C34.9557 51.7043 35.1167 51.9073 35.2753 52.1056C34.8238 52.8173 33.4635 53.0436 32.5302 52.5734C31.3588 51.9843 30.8385 50.6461 31.3122 49.4409C31.7765 48.2603 33.0622 47.6093 34.2685 47.9441C35.4958 48.2848 36.2763 49.4981 36.0488 50.7651C34.755 50.7663 33.453 50.7663 32.1242 50.7663ZM35.1447 49.9006C34.9732 49.1738 34.3408 48.7164 33.5533 48.7339C32.8545 48.7491 32.2245 49.2496 32.1055 49.9006C33.1193 49.9006 34.1297 49.9006 35.1447 49.9006Z" fill="#3D73CC"/>
<path d="M60.1125 50.7803C60.2781 51.9224 61.5988 52.2689 62.7841 51.5071C62.9428 51.7066 63.105 51.9096 63.287 52.1371C62.9591 52.5069 62.545 52.6983 62.0888 52.7764C61.0796 52.9514 60.2315 52.6411 59.619 51.8139C59.0228 51.0101 58.9458 50.1164 59.402 49.2321C59.8663 48.3314 60.6281 47.8473 61.6723 47.8741C63.0688 47.9103 64.141 49.0676 64.0931 50.4699C64.085 50.7103 64.0091 50.7884 63.763 50.7849C62.6745 50.7721 61.5848 50.7791 60.4963 50.7791C60.3773 50.7803 60.2571 50.7803 60.1125 50.7803ZM63.1306 49.9006C62.9615 49.1738 62.3291 48.7164 61.5405 48.7339C60.8405 48.7491 60.2175 49.2438 60.0915 49.9006C61.1053 49.9006 62.1156 49.9006 63.1306 49.9006Z" fill="#3D73CC"/>
<path d="M43.4875 47.8728C44.8525 47.8215 45.9923 48.9112 46.0355 50.3088C46.0763 51.6283 44.9738 52.7787 43.6228 52.8277C42.2952 52.8743 41.1122 51.7928 41.0725 50.4955C41.027 49.0348 42.0467 47.9277 43.4875 47.8728ZM43.5622 48.7327C42.6475 48.7292 41.9288 49.4432 41.93 50.3543C41.9323 51.2445 42.6603 51.9713 43.5458 51.9678C44.4372 51.9632 45.1617 51.241 45.164 50.3543C45.1675 49.4607 44.4523 48.7362 43.5622 48.7327Z" fill="#3D73CC"/>
<path d="M50.6287 47.895C50.9239 47.895 51.1817 47.895 51.4629 47.895C51.4629 49.526 51.4629 51.1477 51.4629 52.7973C51.2027 52.8522 50.9356 52.8312 50.6742 52.809C50.5832 52.6433 50.6672 52.4695 50.5937 52.2887C50.4316 52.382 50.2857 52.4718 50.1352 52.5512C48.6454 53.3352 46.7297 52.3645 46.5711 50.6927C46.4847 49.7792 46.5559 48.8505 46.5559 47.9113C46.8266 47.8483 47.0914 47.8682 47.3959 47.9008C47.3959 48.7047 47.3959 49.4933 47.3959 50.282C47.3959 50.7148 47.5114 51.1068 47.8124 51.4312C48.2732 51.927 48.9522 52.0962 49.5589 51.8675C50.2111 51.6213 50.6124 51.066 50.6264 50.3485C50.6392 49.6555 50.6299 48.9637 50.6299 48.2707C50.6287 48.1505 50.6287 48.0327 50.6287 47.895Z" fill="#3D73CC"/>
<path d="M36.6182 51.3064C36.8982 51.2364 37.1513 51.1781 37.4127 51.1874C37.7463 52.2619 38.5058 52.2001 39.151 52.0472C39.4613 51.9737 39.6748 51.7591 39.6818 51.4137C39.69 51.0661 39.4275 50.9529 39.1557 50.8712C38.6715 50.7266 38.1792 50.6076 37.6997 50.4489C37.0242 50.2261 36.68 49.7291 36.7453 49.1247C36.8188 48.4516 37.3018 47.9756 38.0018 47.8892C38.3192 47.8496 38.6365 47.8484 38.955 47.8811C39.7647 47.9662 40.1917 48.3501 40.369 49.1761C40.1532 49.2951 39.9035 49.2601 39.6725 49.3114C39.557 49.3371 39.5383 49.2286 39.4987 49.1516C39.2047 48.5846 38.3682 48.3664 37.8327 48.7152C37.4932 48.9369 37.5048 49.3709 37.863 49.5681C38.1255 49.7127 38.4195 49.7652 38.7053 49.8446C39.0332 49.9356 39.3633 50.0231 39.6818 50.1409C40.1672 50.3206 40.5288 50.6391 40.5533 51.1897C40.5767 51.7241 40.3958 52.2047 39.9152 52.4847C39.1195 52.9502 38.2725 52.9596 37.4488 52.5816C36.9343 52.3471 36.7022 51.8722 36.6182 51.3064Z" fill="#3D73CC"/>
<path d="M57.9774 51.6061C58.1816 51.7998 58.3718 51.9795 58.5596 52.1568C57.8724 53.0201 56.2939 53.0446 55.3244 52.2256C54.2744 51.3378 54.1624 49.7278 55.0794 48.7105C56.0314 47.6535 57.5808 47.5636 58.5958 48.5191C58.4651 48.7641 58.2084 48.889 58.0521 49.0978C56.8691 48.5716 56.1481 48.6661 55.6301 49.4035C55.1763 50.0475 55.2358 50.9003 55.7736 51.465C56.3406 52.0611 57.1456 52.116 57.9774 51.6061Z" fill="#3D73CC"/>
<path d="M52.01 47.874C52.3005 47.874 52.5513 47.874 52.7998 47.874C52.9258 48.035 52.8045 48.2263 52.9013 48.4048C53.3715 48.0851 53.8638 47.839 54.4658 47.8763C54.5253 48.154 54.4997 48.4223 54.481 48.707C54.2337 48.7455 53.991 48.7653 53.7775 48.882C53.1883 49.2028 52.864 49.6928 52.8617 50.373C52.8582 51.1733 52.8605 51.9748 52.8605 52.7868C52.5688 52.8603 52.3005 52.8125 52.0112 52.8218C52.01 51.1628 52.01 49.5318 52.01 47.874Z" fill="#3D73CC"/>
<path d="M20.0853 52.8082C19.7983 52.8082 19.5498 52.8082 19.2815 52.8082C19.2815 50.5997 19.2815 48.4099 19.2815 46.2072C19.5487 46.1524 19.8065 46.1862 20.0853 46.185C20.0853 48.4029 20.0853 50.5927 20.0853 52.8082Z" fill="#3D73CC"/>
<path d="M29.9367 56.6559C29.8258 56.2569 30.408 56.4225 30.3473 56.0865C30.2563 56.027 30.1758 56.1262 30.0848 56.1402C29.6298 56.2079 29.2402 55.9477 29.155 55.5055C29.0687 55.0634 29.3673 54.6492 29.8258 54.5722C30.2342 54.5034 30.6262 54.7904 30.7078 55.2267C30.7592 55.4985 30.758 55.775 30.7055 56.0457C30.6308 56.4284 30.3637 56.6407 29.9367 56.6559ZM30.4337 55.3527C30.429 55.0797 30.1945 54.8545 29.9215 54.8604C29.6403 54.8674 29.4245 55.0925 29.4315 55.3725C29.4373 55.6479 29.6707 55.8742 29.9425 55.8684C30.2167 55.8614 30.4383 55.6292 30.4337 55.3527Z" fill="#3D73CC"/>
<path d="M47.7224 54.5846C47.8986 54.5193 47.9849 54.566 47.9814 54.7713C47.9733 55.1446 47.9896 55.518 47.9768 55.8913C47.9604 56.344 47.6968 56.6112 47.1998 56.687C47.1333 56.5423 47.1134 56.4361 47.3211 56.379C47.4553 56.3416 47.5836 56.2658 47.6128 56.0721C47.3176 56.1491 47.0283 56.2203 46.7553 56.0418C46.4473 55.8388 46.2244 54.9463 46.4041 54.6243C46.4624 54.5193 46.5523 54.5648 46.6701 54.5811C46.6701 54.8168 46.6654 55.0571 46.6713 55.2951C46.6794 55.6475 46.8708 55.8633 47.1729 55.8668C47.4681 55.8715 47.6676 55.6557 47.6851 55.3045C47.6968 55.0747 47.6991 54.846 47.7073 54.6162C47.7049 54.608 47.7154 54.5986 47.7224 54.5846Z" fill="#3D73CC"/>
<path d="M34.8272 55.9414C34.4714 56.2051 34.1167 56.2156 33.8146 55.9858C33.5497 55.7839 33.4412 55.3826 33.5661 55.0653C33.6851 54.7631 34.0339 54.5379 34.3454 54.5601C34.7082 54.5869 35.0057 54.8541 35.0839 55.2064C35.1341 55.4351 35.0699 55.5296 34.8226 55.5168C34.5111 55.5004 34.1972 55.5133 33.8647 55.5133C34.0339 55.8551 34.2136 55.9298 34.5052 55.8143C34.6837 55.7431 34.6837 55.7431 34.8272 55.9414ZM33.8484 55.1948C34.1681 55.2321 34.4586 55.2263 34.7701 55.2029C34.6639 54.9474 34.4971 54.8483 34.2696 54.8646C34.0736 54.8774 33.9266 54.9696 33.8484 55.1948Z" fill="#3D73CC"/>
<path d="M26.3353 56.1876C26.0436 55.994 25.7683 56.1666 25.4894 56.1445C25.0706 56.113 24.7614 55.7735 24.7649 55.3523C24.7684 54.9428 25.0881 54.5998 25.5023 54.5625C25.8884 54.5275 26.2699 54.8145 26.3318 55.21C26.3796 55.5121 26.3679 55.819 26.3353 56.1876ZM26.0634 55.3686C26.0681 55.0968 25.8406 54.8635 25.5664 54.8623C25.2771 54.86 25.0648 55.0676 25.0601 55.3546C25.0566 55.6288 25.2818 55.8645 25.5524 55.868C25.8184 55.8715 26.0588 55.637 26.0634 55.3686Z" fill="#3D73CC"/>
<path d="M37.9026 56.1153C37.9026 55.5949 37.9026 55.0933 37.9026 54.5029C38.2024 54.8016 38.4731 54.5274 38.7543 54.5648C39.1451 54.6173 39.4426 54.9124 39.4671 55.3079C39.4834 55.5693 39.4706 55.8318 39.4706 56.1036C39.2886 56.1748 39.1976 56.1479 39.1976 55.9379C39.1976 55.7198 39.2233 55.5004 39.1708 55.2823C39.1054 55.0116 38.9456 54.8553 38.6621 54.8646C38.3623 54.8739 38.2024 55.0594 38.1698 55.3429C38.1476 55.5378 38.1569 55.7373 38.1651 55.9344C38.1733 56.1176 38.1009 56.1771 37.9026 56.1153Z" fill="#3D73CC"/>
<path d="M43.5726 54.7867C43.4781 54.9279 43.3929 54.9664 43.2331 54.9034C42.9986 54.81 42.7757 54.8672 42.6311 55.0959C42.5132 55.2814 42.5202 55.475 42.6486 55.65C42.8037 55.86 43.0114 55.9347 43.2541 55.8087C43.4326 55.7165 43.4792 55.8449 43.5621 55.9429C43.1876 56.2322 42.7407 56.2077 42.4631 55.8974C42.1831 55.5847 42.1877 55.1239 42.4736 54.8229C42.7816 54.4962 43.1817 54.4775 43.5726 54.7867Z" fill="#3D73CC"/>
</svg>
