<svg width="60" height="48" viewBox="0 0 60 48" fill="none" xmlns="http://www.w3.org/2000/svg">
<path d="M48.327 33.312C48.145 33.399 47.991 33.363 47.844 33.363C46.651 33.367 45.459 33.35 44.266 33.374C43.928 33.381 43.78 33.264 43.653 32.964C42.056 29.21 40.446 25.461 38.839 21.711C38.775 21.562 38.743 21.417 38.507 21.438C36.477 21.617 34.441 21.484 32.409 21.524C32.27 21.527 32.13 21.524 32.002 21.524C31.888 21.68 31.933 21.838 31.933 21.985C31.93 25.645 31.926 29.304 31.939 32.964C31.94 33.31 31.835 33.392 31.505 33.386C30.371 33.367 29.237 33.379 28.103 33.379C27.976 33.379 27.849 33.379 27.664 33.379C27.664 31.374 27.664 29.403 27.664 27.431C27.664 25.468 27.664 23.506 27.664 21.556C27.501 21.441 27.345 21.487 27.199 21.487C23.048 21.484 18.898 21.489 14.747 21.477C14.405 21.476 14.293 21.542 14.295 21.913C14.307 25.596 14.297 29.279 14.294 32.962C14.294 33.077 14.294 33.193 14.294 33.336C12.908 33.336 11.547 33.336 10.156 33.336C10.156 22.487 10.156 11.633 10.156 0.76095C11.526 0.76095 12.888 0.76095 14.286 0.76095C14.286 6.13595 14.286 11.497 14.286 16.887C18.754 16.887 23.187 16.887 27.622 16.887C27.698 16.735 27.664 16.581 27.664 16.433C27.666 11.335 27.669 6.23695 27.659 1.13995C27.658 0.803949 27.746 0.70595 28.087 0.70895C31.22 0.73395 34.357 0.642949 37.485 0.776949C41.874 0.964949 45.322 2.88095 47.4 6.85995C49.195 10.298 48.598 14.585 46.043 17.522C45.573 18.062 45.062 18.555 44.501 18.999C43.95 19.434 43.359 19.809 42.712 20.17C44.583 24.554 46.454 28.931 48.327 33.312ZM31.951 16.851C31.989 16.868 32.01 16.885 32.03 16.885C34.026 16.864 36.028 17.014 38.018 16.806C39.904 16.609 41.577 15.901 42.894 14.469C44.654 12.555 44.749 10.017 43.066 8.04695C41.522 6.23895 39.476 5.46095 37.149 5.39395C35.515 5.34695 33.878 5.38495 32.242 5.38595C32.151 5.38595 32.06 5.39595 31.95 5.40295C31.951 9.23095 31.951 13.044 31.951 16.851Z" fill="#3D73CC"/>
<path d="M22.638 39.8621C23.041 40.8091 23.433 41.7291 23.846 42.6991C23.525 42.6991 23.26 42.6951 22.995 42.7001C22.82 42.7041 22.794 42.5691 22.744 42.4531C22.453 41.7771 22.158 41.1031 21.878 40.4221C21.791 40.2101 21.686 40.1171 21.437 40.1381C21.068 40.1701 20.694 40.1461 20.278 40.1461C20.278 41.0061 20.278 41.8281 20.278 42.6631C19.962 42.7261 19.687 42.6881 19.384 42.6941C19.384 40.3411 19.384 38.0121 19.384 35.6331C20.31 35.6751 21.247 35.4941 22.158 35.7591C23.056 36.0201 23.67 36.6091 23.821 37.5571C23.973 38.5091 23.575 39.2391 22.775 39.7591C22.738 39.7851 22.703 39.8141 22.638 39.8621ZM20.289 39.1341C20.92 39.1151 21.521 39.2151 22.091 38.9821C22.562 38.7891 22.918 38.4671 22.935 37.9251C22.951 37.3971 22.622 37.0651 22.176 36.8451C21.57 36.5471 20.93 36.6861 20.27 36.6771C20.27 37.4181 20.269 38.1161 20.271 38.8141C20.271 38.9051 20.281 38.9961 20.289 39.1341Z" fill="#3D73CC"/>
<path d="M4.47703 35.652C4.80902 35.652 5.08303 35.652 5.35403 35.652C5.40603 35.938 5.42203 42.164 5.37302 42.667C5.09503 42.724 4.81203 42.703 4.48303 42.674C4.48303 41.673 4.48303 40.686 4.48303 39.682C3.50803 39.682 2.57802 39.682 1.60302 39.682C1.60302 40.678 1.60302 41.665 1.60302 42.668C1.26402 42.713 0.968029 42.711 0.655029 42.673C0.655029 40.332 0.655029 38.01 0.655029 35.665C0.952029 35.605 1.24802 35.628 1.58802 35.65C1.58802 36.671 1.58802 37.681 1.58802 38.712C2.56902 38.712 3.50803 38.712 4.47703 38.712C4.47703 37.689 4.47703 36.688 4.47703 35.652Z" fill="#3D73CC"/>
<path d="M14.123 42.099C14.123 42.923 14.123 43.669 14.123 44.435C13.821 44.435 13.546 44.435 13.262 44.435C13.174 44.345 13.213 44.222 13.213 44.111C13.21 42.755 13.209 41.399 13.212 40.043C13.214 38.846 14.035 37.798 15.195 37.503C16.369 37.204 17.582 37.742 18.168 38.821C18.734 39.863 18.525 41.15 17.657 41.973C16.778 42.806 15.478 42.937 14.452 42.298C14.364 42.243 14.277 42.191 14.123 42.099ZM14.126 40.071C14.13 41.018 14.897 41.785 15.842 41.786C16.781 41.788 17.557 41.013 17.561 40.071C17.565 39.106 16.796 38.343 15.826 38.348C14.875 38.353 14.122 39.117 14.126 40.071Z" fill="#3D73CC"/>
<path d="M6.98688 40.5221C7.16688 41.7401 8.59188 42.1141 9.81188 41.3021C10.0209 41.4971 10.1869 41.7291 10.3379 41.9681C9.61688 42.8201 8.12188 42.9371 7.08688 42.2341C5.98788 41.4881 5.61788 40.0081 6.23988 38.8461C6.88288 37.6421 8.31688 37.0991 9.53288 37.6001C10.7289 38.0931 11.4579 39.4031 11.1349 40.5231C9.76688 40.5221 8.39088 40.5221 6.98688 40.5221ZM6.95888 39.5921C8.05188 39.5921 9.11888 39.5921 10.1899 39.5921C10.0559 38.8831 9.38588 38.3591 8.61888 38.3481C7.80388 38.3361 7.12988 38.8311 6.95888 39.5921Z" fill="#3D73CC"/>
<path d="M25.436 40.508C25.608 41.737 27.034 42.111 28.276 41.293C28.445 41.505 28.618 41.721 28.786 41.932C28.306 42.689 26.86 42.928 25.869 42.429C24.625 41.803 24.071 40.381 24.575 39.1C25.068 37.845 26.434 37.153 27.717 37.509C29.021 37.871 29.851 39.161 29.609 40.507C28.233 40.508 26.849 40.508 25.436 40.508ZM28.646 39.588C28.463 38.815 27.791 38.33 26.955 38.348C26.212 38.364 25.542 38.896 25.416 39.588C26.493 39.588 27.567 39.588 28.646 39.588Z" fill="#3D73CC"/>
<path d="M55.1831 40.5239C55.3591 41.7379 56.7621 42.1069 58.0231 41.2959C58.1921 41.5079 58.3641 41.7229 58.5581 41.9659C58.2101 42.3599 57.7691 42.5619 57.2851 42.6459C56.2121 42.8319 55.3111 42.5019 54.6601 41.6229C54.0271 40.7679 53.9451 39.8189 54.4301 38.8789C54.9241 37.9209 55.7341 37.4069 56.8431 37.4349C58.3271 37.4729 59.4671 38.7029 59.4151 40.1949C59.4061 40.4499 59.3261 40.5329 59.0641 40.5299C57.9071 40.5169 56.7501 40.5239 55.5921 40.5239C55.4651 40.5239 55.3371 40.5239 55.1831 40.5239ZM58.3921 39.5879C58.2121 38.8149 57.5401 38.3299 56.7021 38.3469C55.9581 38.3629 55.2961 38.8889 55.1611 39.5879C56.2391 39.5879 57.3131 39.5879 58.3921 39.5879Z" fill="#3D73CC"/>
<path d="M37.5131 37.433C38.9631 37.378 40.1751 38.537 40.2211 40.022C40.2641 41.424 39.0921 42.648 37.6571 42.699C36.2461 42.749 34.9891 41.599 34.9461 40.22C34.8981 38.669 35.9821 37.491 37.5131 37.433ZM37.5931 38.348C36.6211 38.344 35.8571 39.104 35.8591 40.072C35.8611 41.018 36.6361 41.791 37.5761 41.786C38.5241 41.781 39.2931 41.014 39.2961 40.071C39.2991 39.121 38.5391 38.352 37.5931 38.348Z" fill="#3D73CC"/>
<path d="M45.1041 37.457C45.4171 37.457 45.6911 37.457 45.9911 37.457C45.9911 39.191 45.9911 40.914 45.9911 42.667C45.7141 42.725 45.4301 42.703 45.1521 42.68C45.0551 42.504 45.1451 42.319 45.0661 42.126C44.8941 42.225 44.7391 42.321 44.5781 42.405C42.9941 43.239 40.9591 42.207 40.7901 40.43C40.6981 39.459 40.7741 38.472 40.7741 37.474C41.0611 37.407 41.3431 37.428 41.6661 37.463C41.6661 38.317 41.6661 39.156 41.6661 39.994C41.6661 40.455 41.7881 40.871 42.1081 41.215C42.5981 41.742 43.3191 41.922 43.9651 41.679C44.6581 41.418 45.0851 40.827 45.1001 40.064C45.1141 39.328 45.1031 38.592 45.1031 37.855C45.1041 37.729 45.1041 37.603 45.1041 37.457Z" fill="#3D73CC"/>
<path d="M30.2129 41.082C30.5109 41.008 30.7789 40.945 31.0569 40.956C31.4109 42.098 32.2189 42.033 32.9049 41.87C33.2339 41.792 33.4609 41.563 33.4699 41.197C33.4779 40.827 33.1999 40.707 32.9109 40.621C32.3959 40.467 31.8729 40.341 31.3629 40.173C30.6449 39.936 30.2789 39.408 30.3489 38.766C30.4269 38.05 30.9409 37.545 31.6839 37.453C32.0219 37.411 32.3589 37.409 32.6969 37.445C33.5579 37.535 34.0109 37.944 34.1999 38.822C33.9709 38.949 33.7049 38.911 33.4599 38.965C33.3369 38.992 33.3169 38.876 33.2749 38.795C32.9629 38.192 32.0739 37.961 31.5039 38.332C31.1429 38.567 31.1549 39.028 31.5359 39.238C31.8139 39.391 32.1279 39.448 32.4309 39.532C32.7789 39.628 33.1299 39.721 33.4679 39.847C33.9839 40.038 34.3689 40.376 34.3939 40.962C34.4189 41.53 34.2259 42.04 33.7159 42.339C32.8699 42.834 31.9709 42.844 31.0939 42.441C30.5489 42.189 30.3019 41.684 30.2129 41.082Z" fill="#3D73CC"/>
<path d="M52.9139 41.402C53.1309 41.608 53.3329 41.799 53.5329 41.987C52.8019 42.905 51.1239 42.931 50.0939 42.06C48.9779 41.116 48.8589 39.405 49.8339 38.324C50.8459 37.201 52.4919 37.105 53.5719 38.121C53.4329 38.381 53.1609 38.514 52.9949 38.736C51.7379 38.177 50.9719 38.277 50.4209 39.061C49.9389 39.746 50.0019 40.651 50.5729 41.252C51.1739 41.885 52.0299 41.943 52.9139 41.402Z" fill="#3D73CC"/>
<path d="M46.572 37.435C46.881 37.435 47.148 37.435 47.411 37.435C47.545 37.606 47.416 37.81 47.519 37.999C48.018 37.66 48.542 37.398 49.182 37.437C49.245 37.732 49.218 38.018 49.199 38.32C48.936 38.36 48.678 38.383 48.451 38.506C47.825 38.847 47.48 39.367 47.477 40.09C47.473 40.941 47.476 41.792 47.476 42.656C47.166 42.735 46.88 42.684 46.573 42.693C46.572 40.931 46.572 39.196 46.572 37.435Z" fill="#3D73CC"/>
<path d="M12.6411 42.679C12.3361 42.679 12.0721 42.679 11.7871 42.679C11.7871 40.331 11.7871 38.004 11.7871 35.663C12.0711 35.604 12.3451 35.641 12.6411 35.639C12.6411 37.996 12.6411 40.324 12.6411 42.679Z" fill="#3D73CC"/>
<path d="M23.111 46.768C22.994 46.344 23.611 46.52 23.547 46.163C23.45 46.1 23.365 46.206 23.268 46.22C22.785 46.291 22.371 46.015 22.279 45.546C22.188 45.076 22.504 44.635 22.992 44.554C23.426 44.481 23.843 44.786 23.93 45.25C23.984 45.539 23.983 45.832 23.927 46.121C23.849 46.526 23.565 46.753 23.111 46.768ZM23.64 45.384C23.635 45.094 23.386 44.854 23.096 44.861C22.797 44.868 22.568 45.108 22.575 45.405C22.582 45.698 22.829 45.938 23.118 45.931C23.409 45.924 23.645 45.677 23.64 45.384Z" fill="#3D73CC"/>
<path d="M42.015 44.5681C42.202 44.4991 42.294 44.5481 42.29 44.7671C42.282 45.1641 42.298 45.5611 42.285 45.9571C42.268 46.4391 41.987 46.7221 41.46 46.8021C41.389 46.6491 41.368 46.5351 41.588 46.4751C41.731 46.4361 41.867 46.3551 41.898 46.1491C41.584 46.2311 41.277 46.3061 40.987 46.1161C40.659 45.9011 40.423 44.9521 40.613 44.6091C40.675 44.4981 40.77 44.5461 40.896 44.5631C40.896 44.8141 40.891 45.0681 40.897 45.3221C40.905 45.6961 41.109 45.9251 41.43 45.9301C41.744 45.9351 41.956 45.7051 41.974 45.3321C41.986 45.0881 41.989 44.8441 41.997 44.6001C41.996 44.5921 42.007 44.5821 42.015 44.5681Z" fill="#3D73CC"/>
<path d="M28.309 46.009C27.93 46.289 27.553 46.3 27.232 46.056C26.95 45.842 26.835 45.414 26.968 45.078C27.095 44.757 27.465 44.517 27.796 44.541C28.181 44.569 28.498 44.854 28.581 45.228C28.635 45.472 28.566 45.572 28.304 45.558C27.973 45.541 27.639 45.554 27.285 45.554C27.465 45.917 27.656 45.997 27.966 45.874C28.157 45.799 28.157 45.799 28.309 46.009ZM27.269 45.216C27.609 45.256 27.917 45.25 28.249 45.224C28.136 44.953 27.959 44.847 27.716 44.864C27.509 44.879 27.352 44.976 27.269 45.216Z" fill="#3D73CC"/>
<path d="M19.284 46.2711C18.974 46.0651 18.682 46.2481 18.385 46.2261C17.94 46.1921 17.611 45.8311 17.615 45.3841C17.618 44.9491 17.959 44.5841 18.399 44.5441C18.809 44.5071 19.215 44.8111 19.281 45.2321C19.331 45.5531 19.319 45.8791 19.284 46.2711ZM18.995 45.4011C19 45.1121 18.758 44.8651 18.467 44.8631C18.16 44.8611 17.934 45.0811 17.929 45.3861C17.925 45.6771 18.164 45.9271 18.452 45.9321C18.734 45.9351 18.99 45.6861 18.995 45.4011Z" fill="#3D73CC"/>
<path d="M31.5779 46.194C31.5779 45.641 31.5779 45.108 31.5779 44.481C31.8959 44.798 32.1839 44.507 32.4839 44.547C32.8989 44.602 33.2149 44.916 33.2409 45.337C33.2579 45.615 33.2439 45.894 33.2439 46.183C33.0499 46.259 32.9539 46.231 32.9539 46.007C32.9529 45.775 32.9809 45.542 32.9259 45.31C32.8569 45.022 32.6869 44.856 32.3859 44.866C32.0669 44.876 31.8979 45.073 31.8629 45.374C31.8389 45.581 31.8489 45.794 31.8579 46.003C31.8649 46.196 31.7889 46.26 31.5779 46.194Z" fill="#3D73CC"/>
<path d="M37.604 44.7821C37.503 44.9331 37.413 44.9731 37.243 44.9051C36.994 44.8051 36.758 44.8661 36.603 45.1091C36.478 45.3061 36.485 45.5121 36.622 45.6971C36.786 45.9201 37.008 46.0001 37.266 45.8661C37.455 45.7681 37.506 45.9051 37.594 46.0081C37.196 46.3151 36.721 46.2901 36.426 45.9601C36.129 45.6271 36.133 45.1381 36.437 44.8181C36.763 44.4731 37.188 44.4531 37.604 44.7821Z" fill="#3D73CC"/>
</svg>
