<svg width="50" height="50" viewBox="0 0 50 50" fill="none" xmlns="http://www.w3.org/2000/svg">
<g clip-path="url(#clip0_382_12)">
<path d="M24.9911 49.9258C11.2318 49.8885 0.0844295 38.8997 0.000474277 25.1124C-0.083481 11.2691 10.9893 0.0844279 24.8046 0.000472698C38.6758 -0.0834826 49.8512 11.0266 49.9165 24.8326C49.9818 38.6852 38.8624 49.8512 24.9911 49.9258ZM41.2598 38.9184C41.2318 38.7971 41.2132 38.7225 41.1852 38.6479C40.4576 36.9408 39.7206 35.2337 38.993 33.5359C38.2001 31.6796 37.4072 29.8139 36.6049 27.9576C36.5117 27.7523 36.5676 27.659 36.7449 27.5564C37.6124 27.0527 38.4053 26.4557 39.0863 25.7094C40.2896 24.3661 41.0546 22.8176 41.2598 21.0079C41.5676 18.2561 40.6814 15.924 38.7784 13.965C38.0975 13.2654 37.2673 12.715 36.3997 12.2579C34.8046 11.4277 33.0882 11.1199 31.3064 11.1105C28.8904 11.1012 26.4743 11.1105 24.0583 11.1012C23.5826 11.1012 23.5826 11.1012 23.5826 11.5676C23.5826 15.8773 23.5826 20.1964 23.5919 24.5061C23.5919 24.7859 23.5266 24.8792 23.2281 24.8792C21.0173 24.8699 18.8158 24.8699 16.6049 24.8699C15.271 24.8699 13.937 24.8699 12.6124 24.8699C12.3979 24.8699 12.3139 24.8139 12.3139 24.59C12.3232 24.0303 12.3232 23.4799 12.3232 22.9202C12.3232 19.077 12.3232 15.2243 12.3232 11.3811C12.3232 11.1572 12.2393 11.0919 12.0247 11.0919C10.9986 11.1012 9.97248 11.1012 8.9557 11.0919C8.72249 11.0919 8.65719 11.1758 8.66652 11.3904C8.67585 11.465 8.66652 11.549 8.66652 11.6329C8.66652 20.5508 8.66652 29.4688 8.66652 38.3773C8.66652 38.4706 8.67585 38.5546 8.66652 38.6479C8.64786 38.8717 8.74115 38.937 8.96503 38.9277C9.9445 38.9184 10.9333 38.9277 11.9128 38.9277C12.3139 38.9277 12.3139 38.9277 12.3139 38.5173C12.3139 35.4296 12.3139 32.3326 12.3139 29.2449C12.3139 29.1236 12.3139 28.993 12.3139 28.8438C12.4911 28.8438 12.6217 28.8438 12.743 28.8438C16.2038 28.8438 19.6646 28.8438 23.1161 28.8438C23.5639 28.8438 23.5639 28.8438 23.5639 29.2915C23.5639 32.3699 23.5639 35.4576 23.5639 38.5359C23.5639 38.9277 23.5639 38.9277 23.9557 38.9277C24.9352 38.9277 25.924 38.9184 26.9035 38.937C27.2206 38.9464 27.2766 38.8438 27.2766 38.5546C27.2673 35.4389 27.2766 32.3326 27.2673 29.2169C27.2673 28.9557 27.3326 28.8717 27.6031 28.8811C28.9743 28.8904 30.3456 28.8904 31.7169 28.8811C32.0527 28.8811 32.3979 28.8624 32.7243 28.8064C32.9202 28.7785 32.9949 28.8344 33.0602 28.993C33.2094 29.3568 33.368 29.7299 33.5266 30.0938C34.7486 32.9482 35.9799 35.8027 37.1926 38.6572C37.2859 38.8717 37.3979 38.9277 37.6124 38.9277C38.7038 38.9184 39.7952 38.9277 40.896 38.9277C41.0173 38.937 41.1199 38.9277 41.2598 38.9184Z" fill="#F26513"/>
<path d="M27.3042 20.0192C27.3042 18.508 27.3136 16.9968 27.2949 15.4856C27.2949 15.2338 27.3695 15.1685 27.6121 15.1685C29.0953 15.1871 30.5785 15.1498 32.0524 15.2058C33.4796 15.2617 34.7576 15.7655 35.8863 16.6517C36.8285 17.3979 37.4908 18.3214 37.6587 19.5435C37.808 20.6069 37.4908 21.5491 36.8565 22.3886C35.7651 23.8252 34.2725 24.5994 32.5188 24.7487C30.8584 24.8793 29.1886 24.8233 27.5188 24.8513C27.2856 24.8513 27.3042 24.7114 27.3042 24.5621C27.3042 23.0416 27.3042 21.5304 27.3042 20.0192Z" fill="#F26513"/>
</g>
<defs>
<clipPath id="clip0_382_12">
<rect width="50" height="50" fill="white"/>
</clipPath>
</defs>
</svg>
