<svg width="600" height="600" viewBox="0 0 600 600" fill="none" xmlns="http://www.w3.org/2000/svg">
<path d="M459.96 377.1C458.49 377.8 457.25 377.51 456.06 377.51C446.44 377.54 436.82 377.41 427.21 377.6C424.49 377.65 423.29 376.71 422.27 374.3C409.39 344.02 396.4 313.79 383.45 283.55C382.94 282.35 382.68 281.18 380.77 281.35C364.4 282.79 347.98 281.72 331.59 282.04C330.47 282.06 329.34 282.04 328.31 282.04C327.39 283.3 327.75 284.57 327.75 285.75C327.73 315.26 327.69 344.78 327.8 374.29C327.81 377.08 326.96 377.74 324.3 377.69C315.16 377.53 306.01 377.63 296.86 377.63C295.84 377.63 294.81 377.63 293.32 377.63C293.32 361.46 293.32 345.56 293.32 329.66C293.32 313.83 293.32 298.01 293.32 282.28C292 281.35 290.74 281.72 289.57 281.72C256.1 281.7 222.62 281.73 189.15 281.64C186.39 281.63 185.49 282.16 185.5 285.16C185.6 314.86 185.52 344.56 185.49 374.26C185.49 375.19 185.49 376.12 185.49 377.28C174.31 377.28 163.34 377.28 152.12 377.28C152.12 289.79 152.12 202.25 152.12 114.57C163.17 114.57 174.16 114.57 185.43 114.57C185.43 157.92 185.43 201.15 185.43 244.62C221.47 244.62 257.22 244.62 292.98 244.62C293.59 243.39 293.32 242.15 293.32 240.96C293.34 199.85 293.36 158.74 293.28 117.62C293.27 114.91 293.98 114.12 296.73 114.14C322 114.34 347.3 113.61 372.52 114.69C407.92 116.21 435.73 131.66 452.48 163.75C466.95 191.47 462.14 226.05 441.54 249.73C437.75 254.09 433.63 258.06 429.1 261.64C424.65 265.15 419.89 268.17 414.67 271.08C429.76 306.47 444.85 341.77 459.96 377.1ZM327.89 244.34C328.2 244.48 328.37 244.62 328.53 244.61C344.63 244.44 360.78 245.65 376.82 243.97C392.03 242.38 405.52 236.67 416.14 225.12C430.33 209.69 431.1 189.22 417.53 173.33C405.08 158.75 388.57 152.47 369.81 151.93C356.63 151.55 343.43 151.85 330.24 151.86C329.51 151.86 328.77 151.94 327.89 152C327.89 182.9 327.89 213.65 327.89 244.34Z" fill="#3D73CC"/>
<path d="M252.79 429.92C256.04 437.55 259.2 444.97 262.53 452.8C259.94 452.8 257.81 452.77 255.67 452.81C254.26 452.84 254.05 451.75 253.65 450.82C251.31 445.37 248.92 439.93 246.67 434.44C245.97 432.73 245.12 431.98 243.11 432.15C240.13 432.41 237.12 432.22 233.76 432.22C233.76 439.15 233.76 445.79 233.76 452.52C231.21 453.02 228.99 452.72 226.55 452.77C226.55 433.79 226.55 415.01 226.55 395.82C234.02 396.16 241.58 394.7 248.92 396.84C256.16 398.94 261.11 403.69 262.33 411.34C263.56 419.02 260.35 424.9 253.9 429.1C253.59 429.3 253.3 429.54 252.79 429.92ZM233.84 424.05C238.93 423.89 243.77 424.71 248.37 422.82C252.17 421.26 255.04 418.67 255.17 414.3C255.3 410.04 252.65 407.36 249.05 405.59C244.16 403.19 239 404.31 233.68 404.24C233.68 410.22 233.68 415.85 233.69 421.48C233.69 422.21 233.77 422.94 233.84 424.05Z" fill="#3D73CC"/>
<path d="M106.32 395.98C109 395.98 111.21 395.98 113.39 395.98C113.81 398.29 113.94 448.49 113.54 452.56C111.3 453.02 109.02 452.85 106.36 452.62C106.36 444.54 106.36 436.59 106.36 428.49C98.5 428.49 90.99 428.49 83.14 428.49C83.14 436.52 83.14 444.48 83.14 452.57C80.4 452.93 78.02 452.92 75.49 452.61C75.49 433.73 75.49 415 75.49 396.09C77.88 395.6 80.28 395.79 83.02 395.97C83.02 404.2 83.02 412.35 83.02 420.66C90.93 420.66 98.5 420.66 106.32 420.66C106.32 412.4 106.32 404.33 106.32 395.98Z" fill="#3D73CC"/>
<path d="M184.11 447.96C184.11 454.61 184.11 460.62 184.11 466.8C181.68 466.8 179.46 466.8 177.16 466.8C176.45 466.07 176.77 465.08 176.77 464.18C176.75 453.24 176.74 442.31 176.76 431.37C176.78 421.72 183.4 413.26 192.75 410.88C202.22 408.47 212 412.81 216.73 421.51C221.29 429.91 219.61 440.29 212.61 446.93C205.52 453.65 195.04 454.71 186.76 449.55C186.06 449.12 185.35 448.71 184.11 447.96ZM184.13 431.61C184.16 439.25 190.35 445.43 197.97 445.44C205.54 445.45 211.8 439.21 211.83 431.61C211.86 423.83 205.66 417.67 197.84 417.71C190.17 417.75 184.1 423.91 184.13 431.61Z" fill="#3D73CC"/>
<path d="M126.56 435.25C128.01 445.07 139.51 448.09 149.34 441.54C151.03 443.11 152.36 444.98 153.58 446.91C147.77 453.78 135.71 454.72 127.36 449.05C118.5 443.03 115.52 431.1 120.53 421.72C125.72 412.01 137.28 407.63 147.08 411.67C156.73 415.65 162.6 426.21 160 435.24C148.98 435.25 137.88 435.25 126.56 435.25ZM126.34 427.75C135.15 427.75 143.76 427.75 152.4 427.75C151.32 422.03 145.91 417.8 139.73 417.71C133.15 417.62 127.72 421.61 126.34 427.75Z" fill="#3D73CC"/>
<path d="M275.35 435.14C276.74 445.05 288.24 448.07 298.25 441.47C299.62 443.18 301 444.92 302.36 446.62C298.49 452.72 286.83 454.66 278.83 450.63C268.79 445.58 264.33 434.11 268.39 423.78C272.37 413.66 283.39 408.08 293.73 410.95C304.25 413.87 310.94 424.27 308.99 435.13C297.9 435.14 286.74 435.14 275.35 435.14ZM301.24 427.72C299.77 421.49 294.35 417.57 287.6 417.72C281.61 417.85 276.21 422.14 275.19 427.72C283.88 427.72 292.54 427.72 301.24 427.72Z" fill="#3D73CC"/>
<path d="M515.25 435.26C516.67 445.05 527.99 448.02 538.15 441.49C539.51 443.2 540.9 444.94 542.46 446.89C539.65 450.06 536.1 451.7 532.19 452.37C523.54 453.87 516.27 451.21 511.02 444.12C505.91 437.23 505.25 429.57 509.16 421.99C513.14 414.27 519.67 410.12 528.62 410.35C540.59 410.66 549.78 420.58 549.37 432.6C549.3 434.66 548.65 435.33 546.54 435.3C537.21 435.19 527.87 435.25 518.54 435.25C517.52 435.26 516.49 435.26 515.25 435.26ZM541.12 427.72C539.67 421.49 534.25 417.57 527.49 417.72C521.49 417.85 516.15 422.09 515.07 427.72C523.76 427.72 532.42 427.72 541.12 427.72Z" fill="#3D73CC"/>
<path d="M372.75 410.34C384.45 409.9 394.22 419.24 394.59 431.22C394.94 442.53 385.49 452.39 373.91 452.81C362.53 453.21 352.39 443.94 352.05 432.82C351.66 420.3 360.4 410.81 372.75 410.34ZM373.39 417.71C365.55 417.68 359.39 423.8 359.4 431.61C359.42 439.24 365.66 445.47 373.25 445.44C380.89 445.4 387.1 439.21 387.12 431.61C387.15 423.95 381.02 417.74 373.39 417.71Z" fill="#3D73CC"/>
<path d="M433.96 410.53C436.49 410.53 438.7 410.53 441.11 410.53C441.11 424.51 441.11 438.41 441.11 452.55C438.88 453.02 436.59 452.84 434.35 452.65C433.57 451.23 434.29 449.74 433.66 448.19C432.27 448.99 431.02 449.76 429.73 450.44C416.96 457.16 400.54 448.84 399.18 434.51C398.44 426.68 399.05 418.72 399.05 410.67C401.37 410.13 403.64 410.3 406.25 410.58C406.25 417.47 406.25 424.23 406.25 430.99C406.25 434.7 407.24 438.06 409.82 440.84C413.77 445.09 419.59 446.54 424.79 444.58C430.38 442.47 433.82 437.71 433.94 431.56C434.05 425.62 433.97 419.69 433.97 413.75C433.96 412.72 433.96 411.71 433.96 410.53Z" fill="#3D73CC"/>
<path d="M313.87 439.77C316.27 439.17 318.44 438.67 320.68 438.75C323.54 447.96 330.05 447.43 335.58 446.12C338.24 445.49 340.07 443.65 340.13 440.69C340.2 437.71 337.95 436.74 335.62 436.04C331.47 434.8 327.25 433.78 323.14 432.42C317.35 430.51 314.4 426.25 314.96 421.07C315.59 415.3 319.73 411.22 325.73 410.48C328.45 410.14 331.17 410.13 333.9 410.41C340.84 411.14 344.5 414.43 346.02 421.51C344.17 422.53 342.03 422.23 340.05 422.67C339.06 422.89 338.9 421.96 338.56 421.3C336.04 416.44 328.87 414.57 324.28 417.56C321.37 419.46 321.47 423.18 324.54 424.87C326.79 426.11 329.31 426.56 331.76 427.24C334.57 428.02 337.4 428.77 340.13 429.78C344.29 431.32 347.39 434.05 347.6 438.77C347.8 443.35 346.25 447.47 342.13 449.87C335.31 453.86 328.05 453.94 320.99 450.7C316.58 448.69 314.59 444.62 313.87 439.77Z" fill="#3D73CC"/>
<path d="M496.95 442.34C498.7 444 500.33 445.54 501.94 447.06C496.05 454.46 482.52 454.67 474.21 447.65C465.21 440.04 464.25 426.24 472.11 417.52C480.27 408.46 493.55 407.69 502.25 415.88C501.13 417.98 498.93 419.05 497.59 420.84C487.45 416.33 481.27 417.14 476.83 423.46C472.94 428.98 473.45 436.29 478.06 441.13C482.92 446.24 489.82 446.71 496.95 442.34Z" fill="#3D73CC"/>
<path d="M445.8 410.35C448.29 410.35 450.44 410.35 452.57 410.35C453.65 411.73 452.61 413.37 453.44 414.9C457.47 412.16 461.69 410.05 466.85 410.37C467.36 412.75 467.14 415.05 466.98 417.49C464.86 417.82 462.78 417.99 460.95 418.99C455.9 421.74 453.12 425.94 453.1 431.77C453.07 438.63 453.09 445.5 453.09 452.46C450.59 453.09 448.29 452.68 445.81 452.76C445.8 438.54 445.8 424.56 445.8 410.35Z" fill="#3D73CC"/>
<path d="M172.16 452.64C169.7 452.64 167.57 452.64 165.27 452.64C165.27 433.71 165.27 414.94 165.27 396.06C167.56 395.59 169.77 395.88 172.16 395.87C172.16 414.88 172.16 433.65 172.16 452.64Z" fill="#3D73CC"/>
<path d="M256.6 485.62C255.65 482.2 260.64 483.62 260.12 480.74C259.34 480.23 258.65 481.08 257.87 481.2C253.97 481.78 250.63 479.55 249.9 475.76C249.16 471.97 251.72 468.42 255.65 467.76C259.15 467.17 262.51 469.63 263.21 473.37C263.65 475.7 263.64 478.07 263.19 480.39C262.55 483.67 260.26 485.49 256.6 485.62ZM260.86 474.45C260.82 472.11 258.81 470.18 256.47 470.23C254.06 470.29 252.21 472.22 252.27 474.62C252.32 476.98 254.32 478.92 256.65 478.87C259 478.81 260.9 476.82 260.86 474.45Z" fill="#3D73CC"/>
<path d="M409.05 467.87C410.56 467.31 411.3 467.71 411.27 469.47C411.2 472.67 411.34 475.87 411.23 479.07C411.09 482.95 408.83 485.24 404.57 485.89C404 484.65 403.83 483.74 405.61 483.25C406.76 482.93 407.86 482.28 408.11 480.62C405.58 481.28 403.1 481.89 400.76 480.36C398.12 478.62 396.21 470.97 397.75 468.21C398.25 467.31 399.02 467.7 400.03 467.84C400.03 469.86 399.99 471.92 400.04 473.96C400.11 476.98 401.75 478.83 404.34 478.86C406.87 478.9 408.58 477.05 408.73 474.04C408.83 472.07 408.85 470.11 408.92 468.14C408.9 468.07 408.99 467.99 409.05 467.87Z" fill="#3D73CC"/>
<path d="M298.52 479.5C295.47 481.76 292.43 481.85 289.84 479.88C287.57 478.15 286.64 474.71 287.71 471.99C288.73 469.4 291.72 467.47 294.39 467.66C297.5 467.89 300.05 470.18 300.72 473.2C301.15 475.16 300.6 475.97 298.48 475.86C295.81 475.72 293.12 475.83 290.27 475.83C291.72 478.76 293.26 479.4 295.76 478.41C297.29 477.8 297.29 477.8 298.52 479.5ZM290.13 473.1C292.87 473.42 295.36 473.37 298.03 473.17C297.12 470.98 295.69 470.13 293.74 470.27C292.06 470.38 290.8 471.17 290.13 473.1Z" fill="#3D73CC"/>
<path d="M225.73 481.61C223.23 479.95 220.87 481.43 218.48 481.24C214.89 480.97 212.24 478.06 212.27 474.45C212.3 470.94 215.04 468 218.59 467.68C221.9 467.38 225.17 469.84 225.7 473.23C226.11 475.82 226.01 478.45 225.73 481.61ZM223.4 474.59C223.44 472.26 221.49 470.26 219.14 470.25C216.66 470.23 214.84 472.01 214.8 474.47C214.77 476.82 216.7 478.84 219.02 478.87C221.3 478.9 223.36 476.89 223.4 474.59Z" fill="#3D73CC"/>
<path d="M324.88 480.99C324.88 476.53 324.88 472.23 324.88 467.17C327.45 469.73 329.77 467.38 332.18 467.7C335.53 468.15 338.08 470.68 338.29 474.07C338.43 476.31 338.32 478.56 338.32 480.89C336.76 481.5 335.98 481.27 335.98 479.47C335.98 477.6 336.2 475.72 335.75 473.85C335.19 471.53 333.82 470.19 331.39 470.27C328.82 470.35 327.45 471.94 327.17 474.37C326.98 476.04 327.06 477.75 327.13 479.44C327.2 481.01 326.58 481.52 324.88 480.99Z" fill="#3D73CC"/>
<path d="M373.48 469.6C372.67 470.81 371.94 471.14 370.57 470.6C368.56 469.8 366.65 470.29 365.41 472.25C364.4 473.84 364.46 475.5 365.56 477C366.89 478.8 368.67 479.44 370.75 478.36C372.28 477.57 372.68 478.67 373.39 479.51C370.18 481.99 366.35 481.78 363.97 479.12C361.57 476.44 361.61 472.49 364.06 469.91C366.7 467.11 370.13 466.95 373.48 469.6Z" fill="#3D73CC"/>
</svg>
